<svg width="40" height="40" viewBox="0 0 40 40" fill="none" xmlns="http://www.w3.org/2000/svg">
<path fill-rule="evenodd" clip-rule="evenodd" d="M37.5 5C37.5 4.33696 37.2366 3.70107 36.7678 3.23223C36.2989 2.76339 35.663 2.5 35 2.5H5C4.33696 2.5 3.70107 2.76339 3.23223 3.23223C2.76339 3.70107 2.5 4.33696 2.5 5V35C2.5 35.663 2.76339 36.2989 3.23223 36.7678C3.70107 37.2366 4.33696 37.5 5 37.5H35C35.663 37.5 36.2989 37.2366 36.7678 36.7678C37.2366 36.2989 37.5 35.663 37.5 35V5ZM0 5C0 3.67392 0.526784 2.40215 1.46447 1.46447C2.40215 0.526784 3.67392 0 5 0L35 0C36.3261 0 37.5979 0.526784 38.5355 1.46447C39.4732 2.40215 40 3.67392 40 5V35C40 36.3261 39.4732 37.5979 38.5355 38.5355C37.5979 39.4732 36.3261 40 35 40H5C3.67392 40 2.40215 39.4732 1.46447 38.5355C0.526784 37.5979 0 36.3261 0 35V5ZM21.25 28.75C21.25 29.0815 21.1183 29.3995 20.8839 29.6339C20.6495 29.8683 20.3315 30 20 30C19.6685 30 19.3505 29.8683 19.1161 29.6339C18.8817 29.3995 18.75 29.0815 18.75 28.75V14.2675L13.385 19.635C13.1503 19.8697 12.8319 20.0016 12.5 20.0016C12.1681 20.0016 11.8497 19.8697 11.615 19.635C11.3803 19.4003 11.2484 19.0819 11.2484 18.75C11.2484 18.4181 11.3803 18.0997 11.615 17.865L19.115 10.365C19.2311 10.2486 19.3691 10.1562 19.5209 10.0932C19.6728 10.0302 19.8356 9.99777 20 9.99777C20.1644 9.99777 20.3272 10.0302 20.4791 10.0932C20.6309 10.1562 20.7689 10.2486 20.885 10.365L28.385 17.865C28.6197 18.0997 28.7516 18.4181 28.7516 18.75C28.7516 19.0819 28.6197 19.4003 28.385 19.635C28.1503 19.8697 27.8319 20.0016 27.5 20.0016C27.1681 20.0016 26.8497 19.8697 26.615 19.635L21.25 14.2675V28.75Z" fill="white"/>
</svg>
